<svg xmlns="http://www.w3.org/2000/svg" viewBox="0 0 1024 1024">
  <defs>
    <clipPath id="roundedCorners">
      <rect x="0" y="0" width="1024" height="1024" rx="180" ry="180"/>
    </clipPath>
  </defs>
  
  <!-- Background with rounded corners -->
  <rect x="0" y="0" width="1024" height="1024" rx="180" ry="180" fill="#007AFF"/>
  
  <!-- Icon content clipped to rounded corners -->
  <g clip-path="url(#roundedCorners)">
    <path fill="#ffffff" d="M143.2 611.5c-11.2-22.8-22.3-45.7-33.5-68.5l-44.2-90.1c-6.8-13.9-2.6-24.7 11.9-30.2l63.1-23.7c1.3-.5 2.6-1.5 4-1v213.4l-1.3.1z" />
    <path fill="#ffffff" d="M172.3 511.5v-128c0-4.2-.1-8.3 1.1-12.4a23.1 23.1 0 0128.5-15.6c43.8 12.4 87.7 24.9 131.4 37.5 10.4 3 16.7 11.6 16.7 22.4q-.3 93.8-.8 187.4c0 10.8-5.9 18.8-16.1 22.2q-65.4 21.6-130.8 43c-16.4 5.3-31-6-31-23.6.1-25.9.3-51.9.4-77.9z" />
    <path fill="#ffffff" d="M647 439.1v148.4H377V439.1h270z" />
    <path fill="#ffffff" d="M851.6 513v129.4c0 3.9 0 7.7-1.1 11.4-3.7 11.9-16 19.1-28.1 15.7q-66.1-18.6-132.4-37.7A22.4 22.4 0 01674 610q.2-94.1.7-187.9c.1-11.2 6.1-18.9 17.2-22.5q64.4-21.3 128.9-42.4c17.1-5.6 31.9 5.3 31.8 23.3v42z" />
    <path fill="#ffffff" d="M879.5 627.1V413.5l1.1-.2c1.6 3.2 3.1 6.5 4.7 9.7l73.1 149.1c6.9 14.1 2.5 24.9-12.2 30.5l-61.6 23.1c-1.7.6-3.3 1.6-5.1 1.4z" />
  </g>
</svg>
